# ProBuilder 5.0.1
# https://unity3d.com/unity/features/worldbuilding/probuilder
# 09/07/2021 14:53:35

mtllib ./blade_blur.mtl
o blade_blur

g blade_blur
v -0.0433932 0.02986663 0.07437398 1 1 1
v -0.05301254 -0.03991438 0.07772341 1 1 1
v -0.04326243 0.02994212 0.07790106 1 1 1
v -0.052301 -0.03950355 0.07863301 1 1 1
v 0.01336953 0.05181649 0.03038068 1 1 1
v 0.01412337 0.0522517 0.03427809 1 1 1
v 0.06502141 0.0282325 0.01050163 1 1 1
v 0.06464641 0.02801599 0.01002282 1 1 1
v -0.7663128 -0.04465119 0.0774357 1 1 1
v -0.6487529 0.5215388 0.0636101 1 1 1
v -0.6487529 0.5215388 0.07420982 1 1 1
v -0.7663128 -0.04465119 0.07505661 1 1 1
v -0.111529 0.8358429 0.06606828 1 1 1
v -0.111529 0.8358429 0.07175165 1 1 1
v 0.3638736 0.7067462 0.0636536 1 1 1

vt 0 0
vt 0.001712024 0.5348917
vt 0.1486557 0.9992151
vt 0.4536336 0.09346975
vt 0.4801767 0.1783013
vt 0.8972529 0.9972408
vt 0.9994409 0.5854129
vt 0.5700376 0.1747897
vt 0.6821037 0.08970324
vt 0.896108 0.9972733
vt 0.5704433 0.1783013
vt 0.1459571 0.9991829
vt 0.4793626 0.1747895
vt 0.9962292 0.5873284
vt 0.6821958 0.09346975
vt -0.002719581 0.5329759
vt 0.4525062 0.08970324

vn 0.9898474 -0.1380706 -0.03374518
vn 0.8981709 -0.1245795 -0.3072284
vn 0.8064945 -0.1110885 -0.5807117
vn 0.3804103 -0.9243427 0.02963949
vn 0.3734607 -0.9273674 0.01798171
vn 0.366511 -0.9303922 0.006323936
vn 0.1812865 0.8349803 -0.5195605
vn -0.08828465 -0.04143658 -0.1739254
vn -0.3578558 -0.9178535 0.1717097
vn -0.001855124 0.0247963 0.9996908
vn -0.007729949 0.01855258 0.9997612
vn -0.01360478 0.01230885 0.9998317
vn -0.0008073843 -0.001327936 -0.9999988
vn 0.00162448 -0.02491475 -0.9994068
vn 0.004056344 -0.04850157 -0.9988149
vn -0.01254202 0.01361774 0.9998286
vn 0.2880804 0.03765995 0.90291
vn 0.5887027 0.06170216 0.8059913
vn -0.03237161 0.04752309 -0.9983454
vn -0.21787 -0.2246856 -0.8833569
vn -0.4033684 -0.4968943 -0.7683684
vn -0.006202438 -0.04152868 0.9991181
vn 0.1641371 -0.1306987 0.9577575
vn 0.3344766 -0.2198687 0.9163969
vn 0.003870501 0.07646457 -0.9970648
vn -0.1793557 0.03393919 -0.9644886
vn -0.3625818 -0.0085862 -0.9319124

usemtl propblur
f 3/1/2 4/1/3 2/1/2 1/1/1
f 6/1/5 3/1/6 1/1/5 5/1/4
f 8/1/8 6/1/9 5/1/8 7/1/7
f 4/4/11 3/5/12 10/3/11 9/2/10
f 1/8/14 2/9/15 12/7/14 11/6/13
f 3/5/17 6/11/18 13/10/17 10/3/16
f 5/13/20 1/8/21 11/6/20 14/12/19
f 6/11/23 8/15/24 15/14/23 13/10/22
f 7/17/26 5/13/27 14/12/26 15/16/25

